<svg width="800" height="800" viewBox="0 0 800 800" fill="none" xmlns="http://www.w3.org/2000/svg">
<path d="M400 762.5C600.203 762.5 762.5 600.203 762.5 400C762.5 199.797 600.203 37.5 400 37.5C199.797 37.5 37.5 199.797 37.5 400C37.5 600.203 199.797 762.5 400 762.5Z" fill="#42A5F5"/>
<path d="M400 775C193.25 775 25 606.75 25 400C25 193.25 193.25 25 400 25C606.75 25 775 193.25 775 400C775 606.75 606.75 775 400 775ZM400 50C207 50 50 207 50 400C50 593 207 750 400 750C593 750 750 593 750 400C750 207 593 50 400 50Z" fill="#455A64"/>
<path d="M430.5 537.5H369.5C331.25 537.5 300 506.25 300 468V462.5C300 455.5 305.5 450 312.5 450C319.5 450 325 455.5 325 462.5V468C325 492.5 345 512.5 369.5 512.5H430.5C455 512.5 475 492.5 475 468C475 448.25 461.75 430.75 442.75 425.25L350.5 399C320.75 390.25 300 362.75 300 332C300 293.75 331.25 262.5 369.5 262.5H430.5C468.75 262.5 500 293.75 500 332V337.5C500 344.5 494.5 350 487.5 350C480.5 350 475 344.5 475 337.5V332C475 307.5 455 287.5 430.5 287.5H369.5C345 287.5 325 307.5 325 332C325 351.75 338.25 369.25 357.25 374.75L449.5 401C479.25 409.5 500 437 500 467.75C500 506.25 468.75 537.5 430.5 537.5Z" fill="white"/>
<path d="M400 587.5C393 587.5 387.5 582 387.5 575V525C387.5 518 393 512.5 400 512.5C407 512.5 412.5 518 412.5 525V575C412.5 582 407 587.5 400 587.5Z" fill="white"/>
<path d="M400 287.5C393 287.5 387.5 282 387.5 275V225C387.5 218 393 212.5 400 212.5C407 212.5 412.5 218 412.5 225V275C412.5 282 407 287.5 400 287.5Z" fill="white"/>
<path d="M312.5 659.75C311 659.75 309.75 659.5 308.25 659C198.75 620.25 125 516 125 400C125 284 198.75 179.75 308.25 141C314.75 138.75 321.75 142 324.25 148.5C326.5 155 323.25 162.25 316.75 164.5C217 199.75 150 294.5 150 400C150 505.5 217 600.25 316.75 635.5C323.25 637.75 326.75 645 324.25 651.5C322.5 656.5 317.75 659.75 312.5 659.75Z" fill="white"/>
<path d="M487.5 659.75C482.25 659.75 477.5 656.5 475.75 651.5C473.5 645 476.75 637.75 483.25 635.5C583 600.25 650 505.5 650 400C650 294.5 583 199.75 483.25 164.5C476.75 162.25 473.25 155 475.75 148.5C478 142 485.25 138.5 491.75 141C601.25 179.75 675 284 675 400C675 516 601.25 620.25 491.75 659C490.25 659.5 489 659.75 487.5 659.75Z" fill="white"/>
</svg>
