<svg width="33" height="33" viewBox="0 0 33 33" fill="none" xmlns="http://www.w3.org/2000/svg">
<path d="M16.594 32.594C25.4306 32.594 32.594 25.4306 32.594 16.594C32.594 7.75744 25.4306 0.593994 16.594 0.593994C7.75745 0.593994 0.594009 7.75744 0.594009 16.594C0.594009 25.4306 7.75745 32.594 16.594 32.594Z" fill="#FF0000"/>
<path d="M23.695 16.8561L26.1456 12.6104L24.9858 10.6157H20.0818L22.9313 5.69745C22.1535 5.24355 21.329 4.87479 20.4722 4.59753L16.594 11.2654L17.7652 13.2771H22.6692L20.2186 17.5258L21.3783 19.5404H28.8783C29.089 18.6606 29.2046 17.7606 29.223 16.8561H23.695Z" fill="white"/>
<path d="M15.4314 27.14H17.7652L20.2214 22.8942L22.8943 27.5247C23.6751 27.0755 24.4059 26.5444 25.0742 25.9404L21.3698 19.5347H19.0474L16.5912 23.7833L14.1406 19.5461H11.8154L8.11102 25.9518C8.77824 26.5571 9.50914 27.0883 10.2909 27.5361L12.9666 22.9028L15.4314 27.14Z" fill="white"/>
<path d="M12.9751 17.5258L10.5274 13.2772H15.4286L16.594 11.2654L12.7272 4.57764C11.8704 4.85489 11.0459 5.22366 10.2681 5.67755L13.1176 10.5958H8.2079L7.0453 12.5905L9.49588 16.8419H3.97638C3.99342 17.7531 4.10903 18.6598 4.32117 19.5461H11.8154L12.9751 17.5258Z" fill="white"/>
</svg>
