<svg width="800" height="800" viewBox="0 0 800 800" fill="none" xmlns="http://www.w3.org/2000/svg">
<g clip-path="url(#clip0_132_177)">
<path d="M400 800C620.914 800 800 620.914 800 400C800 179.086 620.914 0 400 0C179.086 0 0 179.086 0 400C0 620.914 179.086 800 400 800Z" fill="#F4B731"/>
<path fill-rule="evenodd" clip-rule="evenodd" d="M231.925 200H395.725C495.35 200 570.875 252.9 598.975 329.85H650V376.375H609.725C610.5 383.725 610.9 391.225 610.9 398.825V399.975C610.9 408.525 610.4 416.975 609.4 425.225H650V471.725H598C569.175 547.625 494.25 600 395.75 600H231.925V471.725H175V425.225H231.925V376.375H175V329.875H231.925V200ZM277.7 471.725V558.275H395.7C468.55 558.275 522.65 523.6 547.825 471.725H277.7ZM561.85 425.225H277.7V376.375H561.95C562.975 384.05 563.525 391.925 563.525 399.975V401.1C563.525 409.325 562.95 417.35 561.85 425.2V425.225ZM395.75 241.625C468.9 241.625 523.175 277.225 548.2 329.825H277.7V241.65H395.7L395.75 241.625Z" fill="white"/>
</g>
<defs>
<clipPath id="clip0_132_177">
<rect width="800" height="800" fill="white"/>
</clipPath>
</defs>
</svg>
