<svg width="800" height="800" viewBox="0 0 800 800" fill="none" xmlns="http://www.w3.org/2000/svg">
<g clip-path="url(#clip0_133_179)">
<path d="M399.734 0C178.967 0 0 178.967 0 399.734C0 620.5 178.967 799.467 399.734 799.467C620.5 799.467 799.467 620.5 799.467 399.734C799.467 178.967 620.5 0 399.734 0ZM394.551 664.568L236.581 441.11L394.551 533.599V664.568ZM394.551 500.848L235.512 407.689L394.551 338.024V500.848ZM394.551 326.83L240.635 394.245L394.551 135.643V326.83ZM404.803 135.566L560.882 395.204L404.803 326.83V135.566ZM404.803 664.568V533.599L562.773 441.11L404.803 664.568ZM404.803 500.852V338.027L563.958 407.742L404.803 500.852Z" fill="#231F20"/>
</g>
<defs>
<clipPath id="clip0_133_179">
<rect width="800" height="800" fill="white"/>
</clipPath>
</defs>
</svg>
