<svg width="69" height="69" viewBox="0 0 69 69" fill="none" xmlns="http://www.w3.org/2000/svg">
<circle cx="34.5" cy="34.5" r="34.5" fill="#FF0000"/>
<path d="M46 37.5234V42.7859C46 43.702 45.8176 44.5856 45.479 45.4171C43.9788 49.1055 39.4068 51.7888 33.9989 51.7888C28.591 51.7888 24.0212 49.1055 22.521 45.4171C22.1824 44.5856 22 43.702 22 42.7859V37.5234C22 38.4396 22.1824 39.3232 22.521 40.1546C22.9075 41.1077 23.5023 41.9956 24.2621 42.7859C26.4396 45.0523 29.9891 46.5286 33.9989 46.5286C38.0087 46.5286 41.5582 45.0523 43.7379 42.7859C44.4977 41.9956 45.0925 41.1077 45.479 40.1546C45.8176 39.3232 46 38.4396 46 37.5234Z" stroke="white" stroke-width="2" stroke-miterlimit="10"/>
<path d="M46 32.2632V37.5234C46 38.4396 45.8176 39.3232 45.479 40.1546C45.0925 41.1077 44.4977 41.9956 43.7379 42.7858C41.5582 45.0523 38.0087 46.5286 33.9989 46.5286C29.9891 46.5286 26.4396 45.0523 24.2621 42.7858C23.5023 41.9956 22.9075 41.1077 22.521 40.1546C22.1824 39.3232 22 38.4396 22 37.5234V32.2632C22 33.1793 22.1824 34.0629 22.521 34.8944C22.9096 35.8496 23.5023 36.7354 24.2621 37.5256C25.2999 38.6067 26.6524 39.5077 28.2176 40.1546C29.9327 40.8624 31.9018 41.2662 33.9989 41.2662C36.0961 41.2662 38.0651 40.8624 39.7802 40.1546C41.3455 39.5077 42.698 38.6067 43.7379 37.5256C44.4977 36.7354 45.0904 35.8496 45.479 34.8944C45.8176 34.0629 46 33.1793 46 32.2632Z" stroke="white" stroke-width="2" stroke-miterlimit="10"/>
<path d="M33.9989 18C27.371 18 22 22.0293 22 27.003C22 27.9191 22.1824 28.8027 22.521 29.6342C22.9096 30.5872 23.5023 31.473 24.2621 32.2632C25.2999 33.3444 26.6524 34.2475 28.2198 34.8944C29.9327 35.6022 31.9039 36.006 33.9989 36.006C36.0939 36.006 38.0651 35.6022 39.7802 34.8944C41.3455 34.2475 42.7001 33.3444 43.7379 32.2632C44.4977 31.473 45.0904 30.5872 45.479 29.6342C45.8176 28.8027 46 27.9191 46 27.003C46 22.0293 40.6269 18 33.9989 18ZM37.0404 26.2128C37.0383 26.3104 37.0274 26.4081 37.01 26.5037C36.9406 26.8662 36.756 27.2005 36.4825 27.4871C35.9332 28.0646 35.0258 28.4423 33.9989 28.4423C32.972 28.4423 32.0646 28.0646 31.5153 27.4871C31.2418 27.2005 31.0573 26.8662 30.9878 26.5037C30.9704 26.4081 30.9596 26.3104 30.9574 26.2128C30.9552 26.2019 30.9552 26.1889 30.9552 26.178C30.9552 24.9275 32.3186 23.9137 33.9989 23.9137C35.6792 23.9137 37.0426 24.9275 37.0426 26.178C37.0426 26.1889 37.0426 26.2019 37.0404 26.2128Z" stroke="white" stroke-width="2" stroke-miterlimit="10"/>
<path d="M46 27.003V32.2632C46 33.1794 45.8176 34.063 45.479 34.8944C45.0904 35.8497 44.4977 36.7354 43.7379 37.5256C42.698 38.6068 41.3455 39.5077 39.7802 40.1547C38.0651 40.8624 36.0939 41.2662 33.9989 41.2662C31.9039 41.2662 29.9327 40.8624 28.2176 40.1547C26.6524 39.5077 25.2999 38.6068 24.2621 37.5256C23.5023 36.7354 22.9096 35.8497 22.521 34.8944C22.1824 34.063 22 33.1794 22 32.2632V27.003C22 27.9191 22.1824 28.8027 22.521 29.6342C22.9096 30.5873 23.5023 31.473 24.2621 32.2632C25.2999 33.3444 26.6524 34.2475 28.2198 34.8944C29.9327 35.6022 31.9039 36.006 33.9989 36.006C36.0939 36.006 38.0651 35.6022 39.7802 34.8944C41.3455 34.2475 42.7001 33.3444 43.7379 32.2632C44.4977 31.473 45.0904 30.5873 45.479 29.6342C45.8176 28.8027 46 27.9191 46 27.003Z" stroke="white" stroke-width="2" stroke-miterlimit="10"/>
<path d="M37.0426 26.178C37.0426 26.178 37.0426 26.2019 37.0404 26.2127C37.0383 26.3104 37.0274 26.4081 37.01 26.5037C36.9406 26.8662 36.756 27.2005 36.4825 27.4871C35.9332 28.0646 35.0258 28.4423 33.9989 28.4423C32.972 28.4423 32.0646 28.0646 31.5153 27.4871C31.2418 27.2005 31.0573 26.8662 30.9878 26.5037C30.9704 26.4081 30.9596 26.3104 30.9574 26.2127C30.9552 26.2019 30.9552 26.1889 30.9552 26.178C30.9552 24.9275 32.3186 23.9137 33.9989 23.9137C35.6792 23.9137 37.0426 24.9275 37.0426 26.178Z" fill="white"/>
</svg>
